<?xml version="1.0" encoding="UTF-8" standalone="no"?>
<svg
   xmlns:dc="http://purl.org/dc/elements/1.1/"
   xmlns:cc="http://creativecommons.org/ns#"
   xmlns:rdf="http://www.w3.org/1999/02/22-rdf-syntax-ns#"
   xmlns:svg="http://www.w3.org/2000/svg"
   xmlns="http://www.w3.org/2000/svg"
   xmlns:sodipodi="http://sodipodi.sourceforge.net/DTD/sodipodi-0.dtd"
   xmlns:inkscape="http://www.inkscape.org/namespaces/inkscape"
   width="29mm"
   height="29mm"
   version="1.1"
   viewBox="0 0 29 29"
   id="svg5"
   sodipodi:docname="id_10.svg"
   inkscape:version="1.0.2 (1.0.2+r75+1)"
   inkscape:export-filename="/home/daniel/dp-sim/images/qrcode_mod/id_10.png"
   inkscape:export-xdpi="436.79999"
   inkscape:export-ydpi="436.79999">
  <metadata
     id="metadata11">
    <rdf:RDF>
      <cc:Work
         rdf:about="">
        <dc:format>image/svg+xml</dc:format>
        <dc:type
           rdf:resource="http://purl.org/dc/dcmitype/StillImage" />
        <dc:title></dc:title>
      </cc:Work>
    </rdf:RDF>
  </metadata>
  <defs
     id="defs9" />
  <sodipodi:namedview
     pagecolor="#ffffff"
     bordercolor="#666666"
     borderopacity="1"
     objecttolerance="10"
     gridtolerance="10"
     guidetolerance="10"
     inkscape:pageopacity="0"
     inkscape:pageshadow="2"
     inkscape:window-width="1213"
     inkscape:window-height="745"
     id="namedview7"
     showgrid="false"
     inkscape:zoom="5.1159074"
     inkscape:cx="40.060897"
     inkscape:cy="61.675147"
     inkscape:window-x="67"
     inkscape:window-y="27"
     inkscape:window-maximized="1"
     inkscape:current-layer="svg5"
     inkscape:document-rotation="0" />
  <rect
     fill="#ffffff"
     x="4"
     y="4"
     width="72.413788%"
     height="72.413788%"
     id="rect2"
     style="stroke-width:0.724138"
     inkscape:export-xdpi="436.79999"
     inkscape:export-ydpi="436.79999" />
  <path
     d="m 10,22.000001 v 1 h 1 v -1 z m 10,2 v 1 h 1 v -1 z M 7.9999999,4.0000008 v 1 h 1 v -1 z M 22,21.000001 v 1 h 1 v -1 z m -14.0000001,-8 v 1 h 1 v -1 z M 21,7.0000008 V 8.000001 h 1 V 7.0000008 Z m 2,-3 v 1 h 1 v -1 z m 1,20.0000002 v 1 h 1 v -1 z m -12,-11 v 1 h 1 v -1 z m 2,-3 v 1 h 1 v -1 z m -1,2 v 1 h 1 v -1 z m -9.0000001,-3 v 1 h 1 v -1 z m 2,-3.0000002 v 1 h 1 v -1 z M 23,13.000001 v 1 h 1 v -1 z m -16.0000001,11 v 1 h 1 v -1 z m 6.0000001,-3 v 1 h 1 v -1 z m -9.0000001,-3 v 1 h 1 v -1 z m 11.0000001,0 v 1 h 1 v -1 z m 2,-6 v 1 h 1 v -1 z M 9.9999999,6.0000008 v 1 H 11 v -1 z M 17,21.000001 v 1 h 1 v -1 z m 2,-3 v 1 h 1 v -1 z m -8,-4 v 1 h 1 v -1 z m -1.0000001,10 v 1 H 11 v -1 z m -2,-18.0000002 v 1 h 1 v -1 z m -1,4.0000002 v 1 h 1 v -1 z M 12,6.0000008 v 1 h 1 v -1 z m 4,16.0000002 v 1 h 1 v -1 z m 2,-3 v 1 h 1 v -1 z m -9.0000001,-3 v 1 h 1 v -1 z m 3.0000001,-1 v 1 h 1 v -1 z m 11,0 v 1 h 1 v -1 z m -2,3 v 1 h 1 v -1 z m -15.0000001,-10 v 1 h 1 v -1 z m -2,12 v 1 h 1 v -1 z m 11.0000001,0 v 1 h 1 v -1 z m -10.0000001,-8 v 1 h 1 v -1 z m 12.0000001,2 v 1 h 1 v -1 z m -7.0000001,-6 v 1 H 11 v -1 z m 10.0000001,2 v 1 h 1 v -1 z M 22,7.0000008 V 8.000001 h 1 V 7.0000008 Z M 20,19.000001 v 1 h 1 v -1 z m -9,-3 v 1 h 1 v -1 z m 11,0 v 1 h 1 v -1 z m -4,8 v 1 h 1 v -1 z m -6,-16 v 1 h 1 v -1 z M 3.9999999,4.0000008 v 1 h 1 v -1 z m 5,14.0000002 v 1 h 1 v -1 z m -2,3 v 1 h 1 v -1 z m 11.0000001,0 v 1 h 1 v -1 z m -5,-5 v 1 h 1 v -1 z m -9.0000001,-3 v 1 h 1 v -1 z M 19,4.0000008 v 1 h 1 v -1 z M 4.9999999,14.000001 v 1 h 1 v -1 z m 5,-4 v 1 H 11 v -1 z m 10.0000001,2 v 1 h 1 v -1 z m 2,6 v 1 h 1 v -1 z M 18,5.0000008 v 1 h 1 v -1 z m 3,-1 v 1 h 1 v -1 z m 3,17.0000002 v 1 h 1 v -1 z m -1,-11 v 1 h 1 v -1 z m -10,-1 v 1 h 1 v -1 z M 3.9999999,6.0000008 v 1 h 1 v -1 z m 11.0000001,0 v 1 h 1 v -1 z M 7.9999999,22.000001 v 1 h 1 v -1 z m 6.0000001,-3 v 1 h 1 v -1 z m -9.0000001,-3 v 1 h 1 v -1 z M 19,15.000001 v 1 h 1 v -1 z m -13.0000001,9 v 1 h 1 v -1 z M 24,5.0000008 v 1 h 1 v -1 z M 22,20.000001 v 1 h 1 v -1 z m -6,-10 v 1 h 1 v -1 z M 6.9999999,7.0000008 V 8.000001 h 1 V 7.0000008 Z m 2,-3 v 1 h 1 v -1 z m 12.0000001,2 v 1 h 1 v -1 z m -3,1 V 8.000001 h 1 V 7.0000008 Z m 0,9.0000002 v 1 h 1 v -1 z m 3,-1 v 1 h 1 v -1 z m -6,-7 v 1 h 1 v -1 z m -7.0000001,16 v 1 h 1 v -1 z m 5.0000001,-4 v 1 h 1 v -1 z M 9.9999999,5.0000008 v 1 H 11 v -1 z M 20,7.0000008 V 8.000001 h 1 V 7.0000008 Z m 2,-3 v 1 h 1 v -1 z M 4.9999999,18.000001 v 1 h 1 v -1 z M 19,17.000001 v 1 h 1 v -1 z m -2,3 v 1 h 1 v -1 z m 3,-4 v 1 h 1 v -1 z m -9,-3 v 1 h 1 v -1 z m 11,0 v 1 h 1 v -1 z m 1,11 v 1 h 1 v -1 z M 24,7.0000008 V 8.000001 h 1 V 7.0000008 Z m 0,9.0000002 v 1 h 1 v -1 z m -8,-4 v 1 h 1 v -1 z m 2,-3 v 1 h 1 v -1 z m 3,-1 v 1 h 1 v -1 z m -13.0000001,0 v 1 h 1 v -1 z M 13,4.0000008 v 1 h 1 v -1 z M 6.9999999,18.000001 v 1 h 1 v -1 z m 2,-3 v 1 h 1 v -1 z m 9.0000001,3 v 1 h 1 v -1 z m -2,3 v 1 h 1 v -1 z m -4,-4 v 1 h 1 v -1 z m 11,0 v 1 h 1 v -1 z m -6,-4 v 1 h 1 v -1 z m 2,-3 v 1 h 1 v -1 z m -13.0000001,0 v 1 h 1 v -1 z M 22,6.0000008 v 1 h 1 v -1 z M 17,22.000001 v 1 h 1 v -1 z m -13.0000001,0 v 1 h 1 v -1 z m 10.0000001,1 v 1 h 1 v -1 z m 6,-5 v 1 h 1 v -1 z m -9,-3 v 1 h 1 v -1 z m 13,-6 v 1 h 1 v -1 z m -14.0000001,10 v 1 H 11 v -1 z M 24,18.000001 v 1 h 1 v -1 z m -16.0000001,-8 v 1 h 1 v -1 z M 13,6.0000008 v 1 h 1 v -1 z M 6.9999999,20.000001 v 1 h 1 v -1 z m 11.0000001,0 v 1 h 1 v -1 z m -2,3 v 1 h 1 v -1 z m -4,-13 v 1 h 1 v -1 z M 14,7.0000008 V 8.000001 h 1 V 7.0000008 Z m -9.0000001,-3 v 1 h 1 v -1 z M 15,15.000001 v 1 h 1 v -1 z m 7,-7 v 1 h 1 v -1 z m -18.0000001,16 v 1 h 1 v -1 z m 2,-3 v 1 h 1 v -1 z m 9.0000001,3 v 1 h 1 v -1 z m -5.0000001,-12 v 1 H 11 v -1 z m 9.0000001,12 v 1 h 1 v -1 z M 6.9999999,4.0000008 v 1 h 1 v -1 z m 11.0000001,0 v 1 h 1 v -1 z m 6,16.0000002 v 1 h 1 v -1 z m -14.0000001,1 v 1 H 11 v -1 z m 8.0000001,-8 v 1 h 1 v -1 z m -9.0000001,-3 v 1 h 1 v -1 z m -1,2 v 1 h 1 v -1 z m -1,10 v 1 h 1 v -1 z m 1,-1 v 1 h 1 v -1 z m 4.0000001,-9 v 1 h 1 v -1 z m -8.0000001,-4 v 1 h 1 v -1 z M 21,24.000001 v 1 h 1 v -1 z M 20,4.0000008 v 1 h 1 v -1 z m 3,17.0000002 v 1 h 1 v -1 z m -18.0000001,-6 v 1 h 1 v -1 z m 10.0000001,2 v 1 h 1 v -1 z m -10.0000001,7 v 1 h 1 v -1 z M 24,4.0000008 v 1 h 1 v -1 z M 9.9999999,14.000001 v 1 H 11 v -1 z M 24,13.000001 v 1 h 1 v -1 z M 6.9999999,6.0000008 v 1 h 1 v -1 z m 11.0000001,0 v 1 h 1 v -1 z M 9.9999999,23.000001 v 1 H 11 v -1 z m 6.0000001,-5 v 1 h 1 v -1 z m -9.0000001,-3 v 1 h 1 v -1 z m 14.0000001,2 v 1 h 1 v -1 z m -9,-3 v 1 h 1 v -1 z m 2,-3 v 1 h 1 v -1 z m -10.0000001,-1 v 1 h 1 v -1 z m 2,-3.0000002 V 8.000001 h 1 V 7.0000008 Z M 20,6.0000008 v 1 h 1 v -1 z M 12,23.000001 v 1 h 1 v -1 z m 1,-1 v 1 h 1 v -1 z m -9.0000001,-3 v 1 h 1 v -1 z m 11.0000001,0 v 1 h 1 v -1 z m 8,4 v 1 h 1 v -1 z m -14.0000001,1 v 1 h 1 v -1 z m 1,-17.0000002 V 8.000001 H 11 V 7.0000008 Z M 24,6.0000008 v 1 h 1 v -1 z M 9.9999999,16.000001 v 1 H 11 v -1 z m -3,-8 v 1 h 1 v -1 z M 18,8.000001 v 1 h 1 v -1 z M 7.9999999,7.0000008 V 8.000001 h 1 V 7.0000008 Z M 22,24.000001 v 1 h 1 v -1 z m -14.0000001,-8 v 1 h 1 v -1 z M 21,10.000001 v 1 h 1 v -1 z m -16.0000001,0 v 1 h 1 v -1 z m 10.0000001,2 v 1 h 1 v -1 z m -2,3 v 1 h 1 v -1 z m 7,-7 v 1 h 1 v -1 z m -7,16 v 1 h 1 v -1 z m -9.0000001,-3 v 1 h 1 v -1 z m 2,-3 v 1 h 1 v -1 z M 19,12.000001 v 1 h 1 v -1 z m -9.0000001,-3 v 1 H 11 v -1 z M 24,8.000001 v 1 h 1 v -1 z M 16,4.0000008 v 1 h 1 v -1 z M 9.9999999,18.000001 v 1 H 11 v -1 z M 24,17.000001 v 1 h 1 v -1 z m -6,-7 v 1 h 1 v -1 z m -10.0000001,8 v 1 h 1 v -1 z M 12,9.000001 v 1 h 1 v -1 z M 3.9999999,5.0000008 v 1 h 1 v -1 z M 13,17.000001 v 1 h 1 v -1 z m 2,-3 v 1 h 1 v -1 z m -11.0000001,9 v 1 h 1 v -1 z m 2,-3 v 1 h 1 v -1 z m 9.0000001,3 v 1 h 1 v -1 z m 9,-13 v 1 h 1 v -1 z m -2,0 v 1 h 1 v -1 z M 16,6.0000008 v 1 h 1 v -1 z M 9.9999999,20.000001 v 1 H 11 v -1 z m 9.0000001,3 v 1 h 1 v -1 z m 3,-4 v 1 h 1 v -1 z m -14.0000001,1 v 1 h 1 v -1 z M 21,14.000001 v 1 h 1 v -1 z M 3.9999999,7.0000008 V 8.000001 h 1 V 7.0000008 Z m 2,-3 v 1 h 1 v -1 z m 9.0000001,3 V 8.000001 h 1 V 7.0000008 Z M 14,17.000001 v 1 h 1 v -1 z m -2,3 v 1 h 1 v -1 z m -8.0000001,-4 v 1 h 1 v -1 z m 2,-3 v 1 h 1 v -1 z m 9.0000001,3 v 1 h 1 v -1 z m 8,4 v 1 h 1 v -1 z m -2,3 v 1 h 1 v -1 z m -15.0000001,-1 v 1 h 1 v -1 z m 4,-18.0000002 v 1 H 11 v -1 z M 17,19.000001 v 1 h 1 v -1 z m 2,-3 v 1 h 1 v -1 z m 3,-4 v 1 h 1 v -1 z"
     id="qr-path"
     fill="#000000"
     fill-opacity="1"
     fill-rule="nonzero"
     stroke="none" />
  <path
     id="rect3599"
     style="fill:#17becf;fill-opacity:1;stroke:none;stroke-width:0.0886791;stroke-dasharray:0.709433, 0.70943299999999998;stroke-opacity:1"
     d="M 3.9166669,3.9166678 V 25.083334 H 25.083333 V 3.9166678 Z m 0.2132806,0.21328 H 24.870052 V 24.870053 H 4.1299475 Z"
     inkscape:export-xdpi="436.79999"
     inkscape:export-ydpi="436.79999" />
  <circle
     style="opacity:0.997;fill:#17becf;fill-opacity:1;stroke:none;stroke-width:0.250439;stroke-dasharray:2.00352, 2.00351999999999997"
     id="path866"
     cx="14.5"
     cy="14.500001"
     r="2.1166666"
     inkscape:export-xdpi="436.79999"
     inkscape:export-ydpi="436.79999" />
  <text
     xml:space="preserve"
     style="font-style:normal;font-variant:normal;font-weight:normal;font-stretch:normal;font-size:3.52778px;line-height:1.25;font-family:'Ubuntu Mono';-inkscape-font-specification:'Ubuntu Mono, Normal';font-variant-ligatures:normal;font-variant-caps:normal;font-variant-numeric:normal;font-variant-east-asian:normal;fill:#f2f2f2;stroke-width:0.264583"
     x="12.684958"
     y="15.593613"
     id="text856"
     inkscape:export-xdpi="436.79999"
     inkscape:export-ydpi="436.79999"><tspan
       sodipodi:role="line"
       id="tspan914"
       x="12.684958"
       y="15.593613">10</tspan></text>
</svg>
